<svg width="1440" height="900" viewBox="0 0 1440 900" fill="none" xmlns="http://www.w3.org/2000/svg">
<g clip-path="url(#clip0)">
<rect width="1440" height="900" fill="#262836"/>
<path fill-rule="evenodd" clip-rule="evenodd" d="M1402.21 -63.5512C1434.67 -92.628 1452.69 -131.331 1479.5 -165.692C1528.38 -228.361 1546.25 -335.69 1624.66 -348.727C1696.11 -360.608 1759.04 -281.988 1792.48 -217.736C1822.35 -160.332 1777.44 -90.6331 1791.8 -27.5354C1803.73 24.8774 1858.9 58.1403 1867.35 111.225C1878.3 180.052 1898.45 268.75 1846.31 314.986C1793.61 361.713 1706.52 292.416 1639.29 313.427C1557.63 338.95 1499.87 489.296 1425.84 446.396C1345.79 400.011 1443.78 257.826 1401.42 175.579C1368.88 112.378 1226.84 131.513 1227.07 60.4249C1227.31 -12.5783 1347.83 -14.8413 1402.21 -63.5512Z" fill="#FD8AA1"/>
<path fill-rule="evenodd" clip-rule="evenodd" d="M340.983 1169.02C309.786 1241.31 309.554 1318.45 291.639 1395.12C258.966 1534.95 311.004 1724.53 192.3 1805.33C84.1218 1878.97 -78.6894 1797.73 -182.226 1717.7C-274.727 1646.19 -253.894 1497.84 -325.269 1405.24C-384.558 1328.32 -500.252 1315.59 -554.342 1234.93C-624.471 1130.35 -724.754 1000.15 -674.273 884.8C-623.257 768.221 -427.908 815.865 -333.578 730.454C-218.986 626.697 -238.207 336.339 -84.2789 350.589C82.1541 365.996 29.2235 673.453 161.027 776.241C262.307 855.225 480.753 716.188 534.25 832.953C589.188 952.865 393.246 1047.92 340.983 1169.02Z" fill="#FD8AA1"/>
</g>
<defs>
<clipPath id="clip0">
<rect width="1440" height="900" fill="white"/>
</clipPath>
</defs>
</svg>
