<svg width="57" height="68" viewBox="0 0 57 68" fill="none" xmlns="http://www.w3.org/2000/svg">
<path d="M11.3333 16.3333C11.3333 13.5719 13.5719 11.3333 16.3333 11.3333H40.3333C43.0947 11.3333 45.3333 13.5719 45.3333 16.3333V22.6666H11.3333V16.3333Z" fill="white"/>
<rect x="22.6667" y="34" width="11.3333" height="11.3333" fill="white"/>
<path d="M22.6667 22.6667L22.6667 51.6667C22.6667 54.4281 20.4281 56.6667 17.6667 56.6667L16.3334 56.6667C13.5719 56.6667 11.3334 54.4281 11.3334 51.6667L11.3334 22.6667L22.6667 22.6667Z" fill="white"/>
<path d="M45.3333 22.6667L45.3333 51.6667C45.3333 54.4281 43.0947 56.6667 40.3333 56.6667L39 56.6667C36.2386 56.6667 34 54.4281 34 51.6667L34 22.6667L45.3333 22.6667Z" fill="#E24867"/>
</svg>
