<svg width="333" height="591" viewBox="0 0 333 591" fill="none" xmlns="http://www.w3.org/2000/svg">
<mask id="mask0" mask-type="alpha" maskUnits="userSpaceOnUse" x="0" y="0" width="270" height="591">
<rect width="270" height="591" rx="8" fill="#E24867"/>
</mask>
<g mask="url(#mask0)">
<g filter="url(#filter0_f)">
<path fill-rule="evenodd" clip-rule="evenodd" d="M429.48 -321.584C474.225 -303.082 535.888 -307.873 561.268 -266.639C587.657 -223.767 552.626 -168.64 554.584 -118.336C556.027 -81.2607 571.521 -47.3013 571.248 -10.1991C570.908 36.1278 587.009 93.929 552.795 125.165C518.12 156.823 458.265 115.729 414.549 132.863C362.177 153.391 334.697 249.151 281.255 231.597C226.16 213.501 261.465 114.852 224.266 70.3638C192.272 32.1017 109.929 52.182 92.24 5.54872C75.2621 -39.209 148.887 -74.9834 150.991 -122.807C154.019 -191.621 76.9548 -258.85 106.609 -321.021C133.01 -376.371 214.559 -384.539 275.883 -384.646C332.188 -384.744 377.447 -343.1 429.48 -321.584Z" fill="url(#paint0_radial)"/>
</g>
<g filter="url(#filter1_f)">
<path fill-rule="evenodd" clip-rule="evenodd" d="M-7.70416 985.768C-55.7134 979.477 -114.035 1000.06 -149.223 966.804C-185.809 932.223 -166.239 869.907 -181.15 821.824C-192.14 786.386 -215.895 757.594 -225.235 721.685C-236.896 676.849 -267.409 625.184 -242.445 586.157C-217.145 546.603 -148.693 570.806 -110.902 542.941C-65.6275 509.558 -63.8686 409.949 -7.70411 413.072C50.1974 416.292 41.6272 520.718 89.0733 554.062C129.88 582.74 204.22 542.031 233.376 582.497C261.36 621.336 199.503 674.947 209.848 721.685C224.734 788.938 316.572 833.931 304.019 901.659C292.844 961.955 216.187 990.952 156.98 1006.93C102.619 1021.59 48.124 993.083 -7.70416 985.768Z" fill="url(#paint1_radial)"/>
</g>
</g>
<path d="M89.4 124C89 124 88.66 123.86 88.38 123.58C88.14 123.34 88.02 123.02 88.02 122.62V118.42C85.22 118.18 82.8 117.54 80.76 116.5C78.72 115.42 77.16 114.1 76.08 112.54C75.04 110.94 74.48 109.24 74.4 107.44C74.4 107.12 74.52 106.84 74.76 106.6C75.04 106.32 75.36 106.18 75.72 106.18H78.84C79.56 106.18 80.06 106.58 80.34 107.38C80.74 109.06 81.78 110.5 83.46 111.7C85.14 112.9 87.52 113.5 90.6 113.5C93.92 113.5 96.42 112.92 98.1 111.76C99.78 110.56 100.62 108.9 100.62 106.78C100.62 105.42 100.2 104.32 99.36 103.48C98.56 102.64 97.36 101.9 95.76 101.26C94.16 100.62 91.76 99.82 88.56 98.86C85.44 97.98 82.96 97.04 81.12 96.04C79.28 95.04 77.9 93.8 76.98 92.32C76.06 90.84 75.6 88.98 75.6 86.74C75.6 83.78 76.7 81.28 78.9 79.24C81.1 77.16 84.14 75.92 88.02 75.52V71.38C88.02 70.98 88.14 70.66 88.38 70.42C88.66 70.14 89 70 89.4 70H91.68C92.08 70 92.4 70.14 92.64 70.42C92.92 70.66 93.06 70.98 93.06 71.38V75.58C95.62 75.9 97.8 76.62 99.6 77.74C101.44 78.86 102.82 80.18 103.74 81.7C104.7 83.22 105.22 84.74 105.3 86.26C105.3 86.58 105.18 86.86 104.94 87.1C104.74 87.34 104.44 87.46 104.04 87.46H100.86C100.02 87.46 99.5 87.08 99.3 86.32C99.06 84.64 98.12 83.26 96.48 82.18C94.84 81.06 92.78 80.5 90.3 80.5C87.58 80.5 85.44 81.02 83.88 82.06C82.32 83.1 81.54 84.64 81.54 86.68C81.54 88.04 81.9 89.16 82.62 90.04C83.38 90.92 84.52 91.7 86.04 92.38C87.56 93.02 89.78 93.76 92.7 94.6C96.1 95.52 98.78 96.48 100.74 97.48C102.7 98.44 104.16 99.66 105.12 101.14C106.08 102.58 106.56 104.42 106.56 106.66C106.56 110.06 105.36 112.8 102.96 114.88C100.56 116.92 97.26 118.12 93.06 118.48V122.62C93.06 123.02 92.92 123.34 92.64 123.58C92.4 123.86 92.08 124 91.68 124H89.4ZM118.03 118C117.67 118 117.37 117.88 117.13 117.64C116.93 117.36 116.83 117.04 116.83 116.68L116.95 116.14L131.89 81.22H112.21C111.81 81.22 111.47 81.1 111.19 80.86C110.95 80.58 110.83 80.24 110.83 79.84V77.44C110.83 77 110.95 76.66 111.19 76.42C111.47 76.14 111.81 76 112.21 76H136.81C137.25 76 137.59 76.14 137.83 76.42C138.11 76.66 138.25 77 138.25 77.44V79.66C138.25 80.38 138.09 81.16 137.77 82L123.01 116.5C122.81 116.94 122.57 117.3 122.29 117.58C122.05 117.86 121.71 118 121.27 118H118.03ZM157.372 118.6C154.332 118.6 151.712 118.06 149.512 116.98C147.312 115.9 145.612 114.48 144.412 112.72C143.252 110.96 142.632 109.08 142.552 107.08V106.96C142.552 106.64 142.672 106.38 142.912 106.18C143.152 105.98 143.432 105.88 143.752 105.88H146.992C147.832 105.88 148.372 106.32 148.612 107.2C149.172 109.32 150.252 110.9 151.852 111.94C153.452 112.98 155.292 113.5 157.372 113.5C160.052 113.5 162.272 112.7 164.032 111.1C165.832 109.46 166.732 107.2 166.732 104.32C166.732 101.72 165.832 99.62 164.032 98.02C162.272 96.42 160.052 95.62 157.372 95.62C155.932 95.62 154.772 95.82 153.892 96.22C153.012 96.58 152.132 97.1 151.252 97.78C150.772 98.14 150.352 98.42 149.992 98.62C149.672 98.78 149.312 98.86 148.912 98.86H145.792C145.432 98.86 145.112 98.74 144.832 98.5C144.552 98.22 144.432 97.9 144.472 97.54L146.392 77.5C146.432 77.02 146.572 76.66 146.812 76.42C147.092 76.14 147.452 76 147.892 76H168.832C169.232 76 169.552 76.14 169.792 76.42C170.072 76.66 170.212 76.98 170.212 77.38V79.72C170.212 80.12 170.072 80.46 169.792 80.74C169.552 80.98 169.232 81.1 168.832 81.1H151.552L150.412 92.92C152.572 91.56 155.172 90.88 158.212 90.88C160.852 90.88 163.272 91.42 165.472 92.5C167.712 93.58 169.472 95.14 170.752 97.18C172.072 99.22 172.732 101.62 172.732 104.38C172.732 107.34 172.072 109.9 170.752 112.06C169.472 114.18 167.672 115.8 165.352 116.92C163.032 118.04 160.372 118.6 157.372 118.6Z" fill="white"/>
<path d="M85.96 149.8C85.8267 149.8 85.7133 149.753 85.62 149.66C85.54 149.58 85.5 149.473 85.5 149.34V136.06C85.5 135.927 85.54 135.82 85.62 135.74C85.7133 135.647 85.8267 135.6 85.96 135.6H86.88C87.0133 135.6 87.12 135.647 87.2 135.74C87.2933 135.82 87.34 135.927 87.34 136.06V136.94C88.0867 135.913 89.18 135.4 90.62 135.4C92.02 135.4 93.0667 135.84 93.76 136.72C94.4667 137.6 94.8467 138.733 94.9 140.12C94.9133 140.267 94.92 140.493 94.92 140.8C94.92 141.107 94.9133 141.333 94.9 141.48C94.8467 142.853 94.4667 143.987 93.76 144.88C93.0533 145.76 92.0067 146.2 90.62 146.2C89.2333 146.2 88.1533 145.7 87.38 144.7V149.34C87.38 149.473 87.34 149.58 87.26 149.66C87.18 149.753 87.0733 149.8 86.94 149.8H85.96ZM90.2 144.58C91.1467 144.58 91.8333 144.287 92.26 143.7C92.7 143.113 92.94 142.34 92.98 141.38C92.9933 141.247 93 141.053 93 140.8C93 138.28 92.0667 137.02 90.2 137.02C89.28 137.02 88.5867 137.327 88.12 137.94C87.6667 138.54 87.42 139.26 87.38 140.1L87.36 140.86L87.38 141.64C87.4067 142.427 87.66 143.113 88.14 143.7C88.62 144.287 89.3067 144.58 90.2 144.58ZM101.554 146.2C100.181 146.2 99.0807 145.78 98.2541 144.94C97.4407 144.087 96.9941 142.927 96.9141 141.46L96.8941 140.78L96.9141 140.12C97.0074 138.68 97.4607 137.533 98.2741 136.68C99.1007 135.827 100.187 135.4 101.534 135.4C103.014 135.4 104.161 135.873 104.974 136.82C105.787 137.753 106.194 139.02 106.194 140.62V140.96C106.194 141.093 106.147 141.207 106.054 141.3C105.974 141.38 105.867 141.42 105.734 141.42H98.8141V141.6C98.8541 142.467 99.1141 143.207 99.5941 143.82C100.087 144.42 100.734 144.72 101.534 144.72C102.147 144.72 102.647 144.6 103.034 144.36C103.434 144.107 103.727 143.847 103.914 143.58C104.034 143.42 104.121 143.327 104.174 143.3C104.241 143.26 104.354 143.24 104.514 143.24H105.494C105.614 143.24 105.714 143.273 105.794 143.34C105.874 143.407 105.914 143.5 105.914 143.62C105.914 143.913 105.727 144.267 105.354 144.68C104.994 145.093 104.481 145.453 103.814 145.76C103.161 146.053 102.407 146.2 101.554 146.2ZM104.294 140.04V139.98C104.294 139.06 104.041 138.313 103.534 137.74C103.041 137.153 102.374 136.86 101.534 136.86C100.694 136.86 100.027 137.153 99.5341 137.74C99.0541 138.313 98.8141 139.06 98.8141 139.98V140.04H104.294ZM109.045 146C108.912 146 108.799 145.96 108.705 145.88C108.625 145.787 108.585 145.673 108.585 145.54V136.08C108.585 135.947 108.625 135.833 108.705 135.74C108.799 135.647 108.912 135.6 109.045 135.6H109.965C110.099 135.6 110.212 135.647 110.305 135.74C110.399 135.833 110.445 135.947 110.445 136.08V136.96C110.992 136.053 111.925 135.6 113.245 135.6H114.025C114.159 135.6 114.265 135.647 114.345 135.74C114.439 135.82 114.485 135.927 114.485 136.06V136.88C114.485 137.013 114.439 137.12 114.345 137.2C114.265 137.28 114.159 137.32 114.025 137.32H112.825C112.105 137.32 111.539 137.533 111.125 137.96C110.712 138.373 110.505 138.94 110.505 139.66V145.54C110.505 145.673 110.459 145.787 110.365 145.88C110.272 145.96 110.159 146 110.025 146H109.045ZM121.097 146C120.963 146 120.85 145.96 120.757 145.88C120.677 145.787 120.637 145.673 120.637 145.54V132.26C120.637 132.127 120.677 132.02 120.757 131.94C120.85 131.847 120.963 131.8 121.097 131.8H122.097C122.23 131.8 122.337 131.847 122.417 131.94C122.51 132.02 122.557 132.127 122.557 132.26V136.92C122.943 136.427 123.397 136.053 123.917 135.8C124.437 135.533 125.083 135.4 125.857 135.4C127.137 135.4 128.13 135.813 128.837 136.64C129.557 137.453 129.917 138.54 129.917 139.9V145.54C129.917 145.673 129.87 145.787 129.777 145.88C129.697 145.96 129.59 146 129.457 146H128.457C128.323 146 128.21 145.96 128.117 145.88C128.037 145.787 127.997 145.673 127.997 145.54V140C127.997 139.053 127.763 138.32 127.297 137.8C126.843 137.28 126.183 137.02 125.317 137.02C124.477 137.02 123.803 137.287 123.297 137.82C122.803 138.34 122.557 139.067 122.557 140V145.54C122.557 145.673 122.51 145.787 122.417 145.88C122.337 145.96 122.23 146 122.097 146H121.097ZM137.064 146.2C135.598 146.2 134.458 145.787 133.644 144.96C132.844 144.133 132.418 143.033 132.364 141.66L132.344 140.8L132.364 139.94C132.418 138.58 132.851 137.487 133.664 136.66C134.478 135.82 135.611 135.4 137.064 135.4C138.518 135.4 139.651 135.82 140.464 136.66C141.278 137.487 141.711 138.58 141.764 139.94C141.778 140.087 141.784 140.373 141.784 140.8C141.784 141.227 141.778 141.513 141.764 141.66C141.711 143.033 141.278 144.133 140.464 144.96C139.664 145.787 138.531 146.2 137.064 146.2ZM137.064 144.66C137.904 144.66 138.564 144.393 139.044 143.86C139.538 143.327 139.804 142.56 139.844 141.56C139.858 141.427 139.864 141.173 139.864 140.8C139.864 140.427 139.858 140.173 139.844 140.04C139.804 139.04 139.538 138.273 139.044 137.74C138.564 137.207 137.904 136.94 137.064 136.94C136.224 136.94 135.558 137.207 135.064 137.74C134.571 138.273 134.311 139.04 134.284 140.04L134.264 140.8L134.284 141.56C134.311 142.56 134.571 143.327 135.064 143.86C135.558 144.393 136.224 144.66 137.064 144.66ZM148.169 146.2C146.902 146.2 145.922 145.793 145.229 144.98C144.535 144.153 144.189 143.06 144.189 141.7V136.06C144.189 135.927 144.229 135.82 144.309 135.74C144.402 135.647 144.515 135.6 144.649 135.6H145.649C145.782 135.6 145.889 135.647 145.969 135.74C146.062 135.82 146.109 135.927 146.109 136.06V141.6C146.109 143.587 146.975 144.58 148.709 144.58C149.549 144.58 150.215 144.32 150.709 143.8C151.202 143.267 151.449 142.533 151.449 141.6V136.06C151.449 135.927 151.489 135.82 151.569 135.74C151.662 135.647 151.775 135.6 151.909 135.6H152.909C153.042 135.6 153.149 135.647 153.229 135.74C153.309 135.82 153.349 135.927 153.349 136.06V145.54C153.349 145.673 153.309 145.787 153.229 145.88C153.149 145.96 153.042 146 152.909 146H151.969C151.835 146 151.722 145.96 151.629 145.88C151.549 145.787 151.509 145.673 151.509 145.54V144.66C151.135 145.167 150.682 145.553 150.149 145.82C149.615 146.073 148.955 146.2 148.169 146.2ZM156.78 146C156.647 146 156.533 145.96 156.44 145.88C156.36 145.787 156.32 145.673 156.32 145.54V136.08C156.32 135.947 156.36 135.833 156.44 135.74C156.533 135.647 156.647 135.6 156.78 135.6H157.7C157.833 135.6 157.947 135.647 158.04 135.74C158.133 135.833 158.18 135.947 158.18 136.08V136.96C158.727 136.053 159.66 135.6 160.98 135.6H161.76C161.893 135.6 162 135.647 162.08 135.74C162.173 135.82 162.22 135.927 162.22 136.06V136.88C162.22 137.013 162.173 137.12 162.08 137.2C162 137.28 161.893 137.32 161.76 137.32H160.56C159.84 137.32 159.273 137.533 158.86 137.96C158.447 138.373 158.24 138.94 158.24 139.66V145.54C158.24 145.673 158.193 145.787 158.1 145.88C158.007 145.96 157.893 146 157.76 146H156.78Z" fill="white"/>
<path d="M181.085 115.15C179.745 115.15 178.725 114.79 178.025 114.07C177.335 113.35 176.965 112.355 176.915 111.085C176.905 110.815 176.9 110.375 176.9 109.765C176.9 109.145 176.905 108.695 176.915 108.415C176.965 107.155 177.34 106.165 178.04 105.445C178.74 104.715 179.755 104.35 181.085 104.35C181.975 104.35 182.73 104.51 183.35 104.83C183.97 105.14 184.44 105.55 184.76 106.06C185.08 106.57 185.255 107.115 185.285 107.695V107.725C185.285 107.805 185.25 107.875 185.18 107.935C185.12 107.985 185.05 108.01 184.97 108.01H184.145C183.945 108.01 183.82 107.895 183.77 107.665C183.6 106.915 183.295 106.39 182.855 106.09C182.415 105.78 181.825 105.625 181.085 105.625C179.365 105.625 178.475 106.58 178.415 108.49C178.405 108.76 178.4 109.175 178.4 109.735C178.4 110.295 178.405 110.72 178.415 111.01C178.475 112.92 179.365 113.875 181.085 113.875C181.825 113.875 182.415 113.725 182.855 113.425C183.305 113.115 183.61 112.585 183.77 111.835C183.8 111.705 183.845 111.615 183.905 111.565C183.965 111.515 184.045 111.49 184.145 111.49H184.97C185.06 111.49 185.135 111.52 185.195 111.58C185.265 111.63 185.295 111.7 185.285 111.79C185.255 112.38 185.08 112.93 184.76 113.44C184.44 113.95 183.97 114.365 183.35 114.685C182.73 114.995 181.975 115.15 181.085 115.15ZM186.488 115C186.408 115 186.338 114.97 186.278 114.91C186.218 114.85 186.188 114.78 186.188 114.7C186.188 114.62 186.193 114.565 186.203 114.535L189.923 104.83C190.003 104.61 190.163 104.5 190.403 104.5H191.423C191.663 104.5 191.823 104.61 191.903 104.83L195.608 114.535L195.638 114.7C195.638 114.78 195.608 114.85 195.548 114.91C195.488 114.97 195.418 115 195.338 115H194.573C194.463 115 194.378 114.975 194.318 114.925C194.258 114.865 194.218 114.805 194.198 114.745L193.373 112.615H188.453L187.628 114.745C187.608 114.805 187.563 114.865 187.493 114.925C187.433 114.975 187.353 115 187.253 115H186.488ZM192.938 111.325L190.913 106L188.888 111.325H192.938ZM197.587 115C197.487 115 197.402 114.97 197.332 114.91C197.272 114.84 197.242 114.755 197.242 114.655V104.86C197.242 104.75 197.272 104.665 197.332 104.605C197.402 104.535 197.487 104.5 197.587 104.5H200.992C202.502 104.5 203.592 104.84 204.262 105.52C204.932 106.19 205.282 107.205 205.312 108.565C205.322 108.855 205.327 109.245 205.327 109.735C205.327 110.225 205.322 110.62 205.312 110.92C205.282 111.87 205.122 112.645 204.832 113.245C204.552 113.835 204.107 114.275 203.497 114.565C202.887 114.855 202.077 115 201.067 115H197.587ZM200.992 113.725C201.682 113.725 202.227 113.63 202.627 113.44C203.037 113.25 203.332 112.95 203.512 112.54C203.702 112.12 203.807 111.56 203.827 110.86C203.847 110.26 203.857 109.885 203.857 109.735C203.857 109.575 203.847 109.205 203.827 108.625C203.807 107.635 203.572 106.915 203.122 106.465C202.672 106.005 201.937 105.775 200.917 105.775H198.712V113.725H200.992Z" fill="white"/>
<defs>
<filter id="filter0_f" x="-25" y="-431" width="700.998" height="729.895" filterUnits="userSpaceOnUse" color-interpolation-filters="sRGB">
<feFlood flood-opacity="0" result="BackgroundImageFix"/>
<feBlend mode="normal" in="SourceGraphic" in2="BackgroundImageFix" result="shape"/>
<feGaussianBlur stdDeviation="2" result="effect1_foregroundBlur"/>
</filter>
<filter id="filter1_f" x="-256" y="409" width="565.194" height="606.061" filterUnits="userSpaceOnUse" color-interpolation-filters="sRGB">
<feFlood flood-opacity="0" result="BackgroundImageFix"/>
<feBlend mode="normal" in="SourceGraphic" in2="BackgroundImageFix" result="shape"/>
<feGaussianBlur stdDeviation="2" result="effect1_foregroundBlur"/>
</filter>
<radialGradient id="paint0_radial" cx="0" cy="0" r="1" gradientUnits="userSpaceOnUse" gradientTransform="translate(349.5 35.5) rotate(148.003) scale(366.123 341.105)">
<stop stop-color="#86C0EB"/>
<stop offset="1" stop-color="#86C0EB" stop-opacity="0"/>
</radialGradient>
<radialGradient id="paint1_radial" cx="0" cy="0" r="1" gradientUnits="userSpaceOnUse" gradientTransform="translate(-22.8699 620.151) rotate(-44.165) scale(326.025 303.747)">
<stop stop-color="#86C0EB"/>
<stop offset="1" stop-color="#86C0EB" stop-opacity="0"/>
</radialGradient>
</defs>
</svg>
