<svg width="270" height="591" viewBox="0 0 270 591" fill="none" xmlns="http://www.w3.org/2000/svg">
<mask id="mask0" mask-type="alpha" maskUnits="userSpaceOnUse" x="0" y="0" width="270" height="591">
<rect width="270" height="591" rx="8" fill="#FD8AA1"/>
</mask>
<g mask="url(#mask0)">
<g filter="url(#filter0_f)">
<path fill-rule="evenodd" clip-rule="evenodd" d="M90.8213 -217.095C123.742 -182.639 171.955 -164.899 195.741 -123.605C222.869 -76.5074 267.89 -10.7469 234.282 31.9687C193.732 83.5095 85.5986 17.6897 44.4183 68.729C-4.99159 129.968 75.5344 245.038 18.5716 299.323C-26.0244 341.823 -102.528 286.614 -159.419 262.983C-211.15 241.494 -259.858 212.394 -295.242 168.968C-328.816 127.761 -357.795 76.8219 -354.316 23.7825C-350.982 -27.0288 -282.731 -54.4731 -277.262 -105.099C-270.156 -170.882 -353.239 -238.406 -319.824 -295.514C-290.087 -346.338 -207.237 -318.673 -148.678 -324.861C-98.7646 -330.137 -46.505 -349.833 -0.733642 -329.238C44.0359 -309.093 56.9068 -252.591 90.8213 -217.095Z" fill="url(#paint0_radial)"/>
</g>
<g filter="url(#filter1_f)">
<path fill-rule="evenodd" clip-rule="evenodd" d="M632.821 400.905C665.742 435.361 713.955 453.101 737.741 494.395C764.869 541.493 809.89 607.253 776.282 649.969C735.732 701.509 627.599 635.69 586.418 686.729C537.008 747.968 617.534 863.038 560.572 917.323C515.976 959.823 439.472 904.614 382.581 880.983C330.85 859.494 282.142 830.394 246.758 786.968C213.184 745.761 184.205 694.822 187.684 641.783C191.018 590.971 259.269 563.527 264.738 512.901C271.844 447.118 188.761 379.594 222.176 322.486C251.913 271.662 334.763 299.327 393.322 293.139C443.235 287.863 495.495 268.167 541.266 288.762C586.036 308.907 598.907 365.409 632.821 400.905Z" fill="url(#paint1_radial)"/>
</g>
<path d="M91.4 124C91 124 90.66 123.86 90.38 123.58C90.14 123.34 90.02 123.02 90.02 122.62V118.42C87.22 118.18 84.8 117.54 82.76 116.5C80.72 115.42 79.16 114.1 78.08 112.54C77.04 110.94 76.48 109.24 76.4 107.44C76.4 107.12 76.52 106.84 76.76 106.6C77.04 106.32 77.36 106.18 77.72 106.18H80.84C81.56 106.18 82.06 106.58 82.34 107.38C82.74 109.06 83.78 110.5 85.46 111.7C87.14 112.9 89.52 113.5 92.6 113.5C95.92 113.5 98.42 112.92 100.1 111.76C101.78 110.56 102.62 108.9 102.62 106.78C102.62 105.42 102.2 104.32 101.36 103.48C100.56 102.64 99.36 101.9 97.76 101.26C96.16 100.62 93.76 99.82 90.56 98.86C87.44 97.98 84.96 97.04 83.12 96.04C81.28 95.04 79.9 93.8 78.98 92.32C78.06 90.84 77.6 88.98 77.6 86.74C77.6 83.78 78.7 81.28 80.9 79.24C83.1 77.16 86.14 75.92 90.02 75.52V71.38C90.02 70.98 90.14 70.66 90.38 70.42C90.66 70.14 91 70 91.4 70H93.68C94.08 70 94.4 70.14 94.64 70.42C94.92 70.66 95.06 70.98 95.06 71.38V75.58C97.62 75.9 99.8 76.62 101.6 77.74C103.44 78.86 104.82 80.18 105.74 81.7C106.7 83.22 107.22 84.74 107.3 86.26C107.3 86.58 107.18 86.86 106.94 87.1C106.74 87.34 106.44 87.46 106.04 87.46H102.86C102.02 87.46 101.5 87.08 101.3 86.32C101.06 84.64 100.12 83.26 98.48 82.18C96.84 81.06 94.78 80.5 92.3 80.5C89.58 80.5 87.44 81.02 85.88 82.06C84.32 83.1 83.54 84.64 83.54 86.68C83.54 88.04 83.9 89.16 84.62 90.04C85.38 90.92 86.52 91.7 88.04 92.38C89.56 93.02 91.78 93.76 94.7 94.6C98.1 95.52 100.78 96.48 102.74 97.48C104.7 98.44 106.16 99.66 107.12 101.14C108.08 102.58 108.56 104.42 108.56 106.66C108.56 110.06 107.36 112.8 104.96 114.88C102.56 116.92 99.26 118.12 95.06 118.48V122.62C95.06 123.02 94.92 123.34 94.64 123.58C94.4 123.86 94.08 124 93.68 124H91.4ZM129.57 118.6C126.37 118.6 123.59 117.96 121.23 116.68C118.87 115.36 117.07 113.6 115.83 111.4C114.59 109.2 113.97 106.8 113.97 104.2C113.97 102.08 114.39 100.08 115.23 98.2C116.11 96.28 117.09 94.58 118.17 93.1L129.57 77.2C129.61 77.16 129.73 77.02 129.93 76.78C130.09 76.54 130.31 76.36 130.59 76.24C130.87 76.08 131.19 76 131.55 76H134.73C135.09 76 135.37 76.14 135.57 76.42C135.81 76.66 135.93 76.96 135.93 77.32C135.93 77.6 135.85 77.86 135.69 78.1L126.93 90.34C127.81 90.06 128.95 89.92 130.35 89.92C133.23 89.96 135.77 90.62 137.97 91.9C140.21 93.18 141.93 94.9 143.13 97.06C144.37 99.22 144.99 101.58 144.99 104.14C144.99 106.7 144.37 109.1 143.13 111.34C141.93 113.54 140.15 115.3 137.79 116.62C135.47 117.94 132.73 118.6 129.57 118.6ZM129.51 113.5C131.23 113.5 132.81 113.14 134.25 112.42C135.73 111.7 136.89 110.64 137.73 109.24C138.61 107.8 139.05 106.1 139.05 104.14C139.05 102.22 138.61 100.56 137.73 99.16C136.89 97.76 135.73 96.7 134.25 95.98C132.81 95.26 131.23 94.9 129.51 94.9C127.83 94.9 126.25 95.26 124.77 95.98C123.33 96.7 122.17 97.76 121.29 99.16C120.41 100.56 119.97 102.22 119.97 104.14C119.97 106.1 120.41 107.8 121.29 109.24C122.17 110.64 123.33 111.7 124.77 112.42C126.21 113.14 127.79 113.5 129.51 113.5ZM164.762 118.6C161.722 118.6 159.102 118.06 156.902 116.98C154.702 115.9 153.002 114.48 151.802 112.72C150.642 110.96 150.022 109.08 149.942 107.08V106.96C149.942 106.64 150.062 106.38 150.302 106.18C150.542 105.98 150.822 105.88 151.142 105.88H154.382C155.222 105.88 155.762 106.32 156.002 107.2C156.562 109.32 157.642 110.9 159.242 111.94C160.842 112.98 162.682 113.5 164.762 113.5C167.442 113.5 169.662 112.7 171.422 111.1C173.222 109.46 174.122 107.2 174.122 104.32C174.122 101.72 173.222 99.62 171.422 98.02C169.662 96.42 167.442 95.62 164.762 95.62C163.322 95.62 162.162 95.82 161.282 96.22C160.402 96.58 159.522 97.1 158.642 97.78C158.162 98.14 157.742 98.42 157.382 98.62C157.062 98.78 156.702 98.86 156.302 98.86H153.182C152.822 98.86 152.502 98.74 152.222 98.5C151.942 98.22 151.822 97.9 151.862 97.54L153.782 77.5C153.822 77.02 153.962 76.66 154.202 76.42C154.482 76.14 154.842 76 155.282 76H176.222C176.622 76 176.942 76.14 177.182 76.42C177.462 76.66 177.602 76.98 177.602 77.38V79.72C177.602 80.12 177.462 80.46 177.182 80.74C176.942 80.98 176.622 81.1 176.222 81.1H158.942L157.802 92.92C159.962 91.56 162.562 90.88 165.602 90.88C168.242 90.88 170.662 91.42 172.862 92.5C175.102 93.58 176.862 95.14 178.142 97.18C179.462 99.22 180.122 101.62 180.122 104.38C180.122 107.34 179.462 109.9 178.142 112.06C176.862 114.18 175.062 115.8 172.742 116.92C170.422 118.04 167.762 118.6 164.762 118.6Z" fill="black"/>
<path d="M92.96 148.8C92.8267 148.8 92.7133 148.753 92.62 148.66C92.54 148.58 92.5 148.473 92.5 148.34V135.06C92.5 134.927 92.54 134.82 92.62 134.74C92.7133 134.647 92.8267 134.6 92.96 134.6H93.88C94.0133 134.6 94.12 134.647 94.2 134.74C94.2933 134.82 94.34 134.927 94.34 135.06V135.94C95.0867 134.913 96.18 134.4 97.62 134.4C99.02 134.4 100.067 134.84 100.76 135.72C101.467 136.6 101.847 137.733 101.9 139.12C101.913 139.267 101.92 139.493 101.92 139.8C101.92 140.107 101.913 140.333 101.9 140.48C101.847 141.853 101.467 142.987 100.76 143.88C100.053 144.76 99.0067 145.2 97.62 145.2C96.2333 145.2 95.1533 144.7 94.38 143.7V148.34C94.38 148.473 94.34 148.58 94.26 148.66C94.18 148.753 94.0733 148.8 93.94 148.8H92.96ZM97.2 143.58C98.1467 143.58 98.8333 143.287 99.26 142.7C99.7 142.113 99.94 141.34 99.98 140.38C99.9933 140.247 100 140.053 100 139.8C100 137.28 99.0667 136.02 97.2 136.02C96.28 136.02 95.5867 136.327 95.12 136.94C94.6667 137.54 94.42 138.26 94.38 139.1L94.36 139.86L94.38 140.64C94.4067 141.427 94.66 142.113 95.14 142.7C95.62 143.287 96.3067 143.58 97.2 143.58ZM108.554 145.2C107.181 145.2 106.081 144.78 105.254 143.94C104.441 143.087 103.994 141.927 103.914 140.46L103.894 139.78L103.914 139.12C104.007 137.68 104.461 136.533 105.274 135.68C106.101 134.827 107.187 134.4 108.534 134.4C110.014 134.4 111.161 134.873 111.974 135.82C112.787 136.753 113.194 138.02 113.194 139.62V139.96C113.194 140.093 113.147 140.207 113.054 140.3C112.974 140.38 112.867 140.42 112.734 140.42H105.814V140.6C105.854 141.467 106.114 142.207 106.594 142.82C107.087 143.42 107.734 143.72 108.534 143.72C109.147 143.72 109.647 143.6 110.034 143.36C110.434 143.107 110.727 142.847 110.914 142.58C111.034 142.42 111.121 142.327 111.174 142.3C111.241 142.26 111.354 142.24 111.514 142.24H112.494C112.614 142.24 112.714 142.273 112.794 142.34C112.874 142.407 112.914 142.5 112.914 142.62C112.914 142.913 112.727 143.267 112.354 143.68C111.994 144.093 111.481 144.453 110.814 144.76C110.161 145.053 109.407 145.2 108.554 145.2ZM111.294 139.04V138.98C111.294 138.06 111.041 137.313 110.534 136.74C110.041 136.153 109.374 135.86 108.534 135.86C107.694 135.86 107.027 136.153 106.534 136.74C106.054 137.313 105.814 138.06 105.814 138.98V139.04H111.294ZM116.045 145C115.912 145 115.799 144.96 115.705 144.88C115.625 144.787 115.585 144.673 115.585 144.54V135.08C115.585 134.947 115.625 134.833 115.705 134.74C115.799 134.647 115.912 134.6 116.045 134.6H116.965C117.099 134.6 117.212 134.647 117.305 134.74C117.399 134.833 117.445 134.947 117.445 135.08V135.96C117.992 135.053 118.925 134.6 120.245 134.6H121.025C121.159 134.6 121.265 134.647 121.345 134.74C121.439 134.82 121.485 134.927 121.485 135.06V135.88C121.485 136.013 121.439 136.12 121.345 136.2C121.265 136.28 121.159 136.32 121.025 136.32H119.825C119.105 136.32 118.539 136.533 118.125 136.96C117.712 137.373 117.505 137.94 117.505 138.66V144.54C117.505 144.673 117.459 144.787 117.365 144.88C117.272 144.96 117.159 145 117.025 145H116.045ZM128.097 145C127.963 145 127.85 144.96 127.757 144.88C127.677 144.787 127.637 144.673 127.637 144.54V131.26C127.637 131.127 127.677 131.02 127.757 130.94C127.85 130.847 127.963 130.8 128.097 130.8H129.097C129.23 130.8 129.337 130.847 129.417 130.94C129.51 131.02 129.557 131.127 129.557 131.26V135.92C129.943 135.427 130.397 135.053 130.917 134.8C131.437 134.533 132.083 134.4 132.857 134.4C134.137 134.4 135.13 134.813 135.837 135.64C136.557 136.453 136.917 137.54 136.917 138.9V144.54C136.917 144.673 136.87 144.787 136.777 144.88C136.697 144.96 136.59 145 136.457 145H135.457C135.323 145 135.21 144.96 135.117 144.88C135.037 144.787 134.997 144.673 134.997 144.54V139C134.997 138.053 134.763 137.32 134.297 136.8C133.843 136.28 133.183 136.02 132.317 136.02C131.477 136.02 130.803 136.287 130.297 136.82C129.803 137.34 129.557 138.067 129.557 139V144.54C129.557 144.673 129.51 144.787 129.417 144.88C129.337 144.96 129.23 145 129.097 145H128.097ZM144.064 145.2C142.598 145.2 141.458 144.787 140.644 143.96C139.844 143.133 139.418 142.033 139.364 140.66L139.344 139.8L139.364 138.94C139.418 137.58 139.851 136.487 140.664 135.66C141.478 134.82 142.611 134.4 144.064 134.4C145.518 134.4 146.651 134.82 147.464 135.66C148.278 136.487 148.711 137.58 148.764 138.94C148.778 139.087 148.784 139.373 148.784 139.8C148.784 140.227 148.778 140.513 148.764 140.66C148.711 142.033 148.278 143.133 147.464 143.96C146.664 144.787 145.531 145.2 144.064 145.2ZM144.064 143.66C144.904 143.66 145.564 143.393 146.044 142.86C146.538 142.327 146.804 141.56 146.844 140.56C146.858 140.427 146.864 140.173 146.864 139.8C146.864 139.427 146.858 139.173 146.844 139.04C146.804 138.04 146.538 137.273 146.044 136.74C145.564 136.207 144.904 135.94 144.064 135.94C143.224 135.94 142.558 136.207 142.064 136.74C141.571 137.273 141.311 138.04 141.284 139.04L141.264 139.8L141.284 140.56C141.311 141.56 141.571 142.327 142.064 142.86C142.558 143.393 143.224 143.66 144.064 143.66ZM155.169 145.2C153.902 145.2 152.922 144.793 152.229 143.98C151.535 143.153 151.189 142.06 151.189 140.7V135.06C151.189 134.927 151.229 134.82 151.309 134.74C151.402 134.647 151.515 134.6 151.649 134.6H152.649C152.782 134.6 152.889 134.647 152.969 134.74C153.062 134.82 153.109 134.927 153.109 135.06V140.6C153.109 142.587 153.975 143.58 155.709 143.58C156.549 143.58 157.215 143.32 157.709 142.8C158.202 142.267 158.449 141.533 158.449 140.6V135.06C158.449 134.927 158.489 134.82 158.569 134.74C158.662 134.647 158.775 134.6 158.909 134.6H159.909C160.042 134.6 160.149 134.647 160.229 134.74C160.309 134.82 160.349 134.927 160.349 135.06V144.54C160.349 144.673 160.309 144.787 160.229 144.88C160.149 144.96 160.042 145 159.909 145H158.969C158.835 145 158.722 144.96 158.629 144.88C158.549 144.787 158.509 144.673 158.509 144.54V143.66C158.135 144.167 157.682 144.553 157.149 144.82C156.615 145.073 155.955 145.2 155.169 145.2ZM163.78 145C163.647 145 163.533 144.96 163.44 144.88C163.36 144.787 163.32 144.673 163.32 144.54V135.08C163.32 134.947 163.36 134.833 163.44 134.74C163.533 134.647 163.647 134.6 163.78 134.6H164.7C164.833 134.6 164.947 134.647 165.04 134.74C165.133 134.833 165.18 134.947 165.18 135.08V135.96C165.727 135.053 166.66 134.6 167.98 134.6H168.76C168.893 134.6 169 134.647 169.08 134.74C169.173 134.82 169.22 134.927 169.22 135.06V135.88C169.22 136.013 169.173 136.12 169.08 136.2C169 136.28 168.893 136.32 168.76 136.32H167.56C166.84 136.32 166.273 136.533 165.86 136.96C165.447 137.373 165.24 137.94 165.24 138.66V144.54C165.24 144.673 165.193 144.787 165.1 144.88C165.007 144.96 164.893 145 164.76 145H163.78Z" fill="black"/>
<path d="M188.085 114.15C186.745 114.15 185.725 113.79 185.025 113.07C184.335 112.35 183.965 111.355 183.915 110.085C183.905 109.815 183.9 109.375 183.9 108.765C183.9 108.145 183.905 107.695 183.915 107.415C183.965 106.155 184.34 105.165 185.04 104.445C185.74 103.715 186.755 103.35 188.085 103.35C188.975 103.35 189.73 103.51 190.35 103.83C190.97 104.14 191.44 104.55 191.76 105.06C192.08 105.57 192.255 106.115 192.285 106.695V106.725C192.285 106.805 192.25 106.875 192.18 106.935C192.12 106.985 192.05 107.01 191.97 107.01H191.145C190.945 107.01 190.82 106.895 190.77 106.665C190.6 105.915 190.295 105.39 189.855 105.09C189.415 104.78 188.825 104.625 188.085 104.625C186.365 104.625 185.475 105.58 185.415 107.49C185.405 107.76 185.4 108.175 185.4 108.735C185.4 109.295 185.405 109.72 185.415 110.01C185.475 111.92 186.365 112.875 188.085 112.875C188.825 112.875 189.415 112.725 189.855 112.425C190.305 112.115 190.61 111.585 190.77 110.835C190.8 110.705 190.845 110.615 190.905 110.565C190.965 110.515 191.045 110.49 191.145 110.49H191.97C192.06 110.49 192.135 110.52 192.195 110.58C192.265 110.63 192.295 110.7 192.285 110.79C192.255 111.38 192.08 111.93 191.76 112.44C191.44 112.95 190.97 113.365 190.35 113.685C189.73 113.995 188.975 114.15 188.085 114.15ZM193.488 114C193.408 114 193.338 113.97 193.278 113.91C193.218 113.85 193.188 113.78 193.188 113.7C193.188 113.62 193.193 113.565 193.203 113.535L196.923 103.83C197.003 103.61 197.163 103.5 197.403 103.5H198.423C198.663 103.5 198.823 103.61 198.903 103.83L202.608 113.535L202.638 113.7C202.638 113.78 202.608 113.85 202.548 113.91C202.488 113.97 202.418 114 202.338 114H201.573C201.463 114 201.378 113.975 201.318 113.925C201.258 113.865 201.218 113.805 201.198 113.745L200.373 111.615H195.453L194.628 113.745C194.608 113.805 194.563 113.865 194.493 113.925C194.433 113.975 194.353 114 194.253 114H193.488ZM199.938 110.325L197.913 105L195.888 110.325H199.938ZM204.587 114C204.487 114 204.402 113.97 204.332 113.91C204.272 113.84 204.242 113.755 204.242 113.655V103.86C204.242 103.75 204.272 103.665 204.332 103.605C204.402 103.535 204.487 103.5 204.587 103.5H207.992C209.502 103.5 210.592 103.84 211.262 104.52C211.932 105.19 212.282 106.205 212.312 107.565C212.322 107.855 212.327 108.245 212.327 108.735C212.327 109.225 212.322 109.62 212.312 109.92C212.282 110.87 212.122 111.645 211.832 112.245C211.552 112.835 211.107 113.275 210.497 113.565C209.887 113.855 209.077 114 208.067 114H204.587ZM207.992 112.725C208.682 112.725 209.227 112.63 209.627 112.44C210.037 112.25 210.332 111.95 210.512 111.54C210.702 111.12 210.807 110.56 210.827 109.86C210.847 109.26 210.857 108.885 210.857 108.735C210.857 108.575 210.847 108.205 210.827 107.625C210.807 106.635 210.572 105.915 210.122 105.465C209.672 105.005 208.937 104.775 207.917 104.775H205.712V112.725H207.992Z" fill="black"/>
</g>
<defs>
<filter id="filter0_f" x="-546" y="-481" width="876.971" height="876.971" filterUnits="userSpaceOnUse" color-interpolation-filters="sRGB">
<feFlood flood-opacity="0" result="BackgroundImageFix"/>
<feBlend mode="normal" in="SourceGraphic" in2="BackgroundImageFix" result="shape"/>
<feGaussianBlur stdDeviation="2" result="effect1_foregroundBlur"/>
</filter>
<filter id="filter1_f" x="-3.99988" y="137" width="876.971" height="876.971" filterUnits="userSpaceOnUse" color-interpolation-filters="sRGB">
<feFlood flood-opacity="0" result="BackgroundImageFix"/>
<feBlend mode="normal" in="SourceGraphic" in2="BackgroundImageFix" result="shape"/>
<feGaussianBlur stdDeviation="2" result="effect1_foregroundBlur"/>
</filter>
<radialGradient id="paint0_radial" cx="0" cy="0" r="1" gradientUnits="userSpaceOnUse" gradientTransform="translate(-94.4999 -81) rotate(34.573) scale(548.941 640.559)">
<stop stop-color="#86C0EB"/>
<stop offset="1" stop-color="#86C0EB" stop-opacity="0"/>
</radialGradient>
<radialGradient id="paint1_radial" cx="0" cy="0" r="1" gradientUnits="userSpaceOnUse" gradientTransform="translate(447.5 537) rotate(34.573) scale(548.941 640.559)">
<stop stop-color="#86C0EB"/>
<stop offset="1" stop-color="#86C0EB" stop-opacity="0"/>
</radialGradient>
</defs>
</svg>
