<svg width="270" height="591" viewBox="0 0 270 591" fill="none" xmlns="http://www.w3.org/2000/svg">
<mask id="mask0" mask-type="alpha" maskUnits="userSpaceOnUse" x="0" y="0" width="270" height="591">
<rect width="270" height="591" rx="8" fill="#E24867"/>
</mask>
<g mask="url(#mask0)">
<g filter="url(#filter0_f)">
<path fill-rule="evenodd" clip-rule="evenodd" d="M429.48 -321.584C474.225 -303.082 535.888 -307.873 561.268 -266.639C587.657 -223.767 552.626 -168.64 554.584 -118.336C556.027 -81.2607 571.521 -47.3013 571.248 -10.1991C570.908 36.1278 587.009 93.929 552.795 125.165C518.12 156.823 458.264 115.729 414.549 132.863C362.177 153.391 334.697 249.151 281.255 231.597C226.16 213.501 261.465 114.852 224.266 70.3638C192.272 32.1017 109.929 52.182 92.24 5.54872C75.262 -39.209 148.886 -74.9834 150.991 -122.807C154.018 -191.621 76.9547 -258.85 106.609 -321.021C133.01 -376.371 214.559 -384.539 275.883 -384.646C332.188 -384.744 377.447 -343.1 429.48 -321.584Z" fill="url(#paint0_radial)"/>
</g>
<g filter="url(#filter1_f)">
<path fill-rule="evenodd" clip-rule="evenodd" d="M-7.7041 985.768C-55.7134 979.477 -114.035 1000.06 -149.223 966.804C-185.809 932.223 -166.239 869.907 -181.15 821.824C-192.139 786.386 -215.895 757.594 -225.235 721.685C-236.896 676.849 -267.409 625.184 -242.445 586.157C-217.145 546.603 -148.693 570.806 -110.902 542.941C-65.6275 509.558 -63.8686 409.949 -7.70405 413.072C50.1974 416.292 41.6273 520.718 89.0733 554.062C129.88 582.74 204.22 542.031 233.376 582.497C261.36 621.336 199.503 674.947 209.848 721.685C224.734 788.938 316.572 833.931 304.019 901.659C292.844 961.955 216.187 990.952 156.98 1006.93C102.619 1021.59 48.124 993.083 -7.7041 985.768Z" fill="url(#paint1_radial)"/>
</g>
<path d="M87.4 115C87 115 86.66 114.86 86.38 114.58C86.14 114.34 86.02 114.02 86.02 113.62V109.42C83.22 109.18 80.8 108.54 78.76 107.5C76.72 106.42 75.16 105.1 74.08 103.54C73.04 101.94 72.48 100.24 72.4 98.44C72.4 98.12 72.52 97.84 72.76 97.6C73.04 97.32 73.36 97.18 73.72 97.18H76.84C77.56 97.18 78.06 97.58 78.34 98.38C78.74 100.06 79.78 101.5 81.46 102.7C83.14 103.9 85.52 104.5 88.6 104.5C91.92 104.5 94.42 103.92 96.1 102.76C97.78 101.56 98.62 99.9 98.62 97.78C98.62 96.42 98.2 95.32 97.36 94.48C96.56 93.64 95.36 92.9 93.76 92.26C92.16 91.62 89.76 90.82 86.56 89.86C83.44 88.98 80.96 88.04 79.12 87.04C77.28 86.04 75.9 84.8 74.98 83.32C74.06 81.84 73.6 79.98 73.6 77.74C73.6 74.78 74.7 72.28 76.9 70.24C79.1 68.16 82.14 66.92 86.02 66.52V62.38C86.02 61.98 86.14 61.66 86.38 61.42C86.66 61.14 87 61 87.4 61H89.68C90.08 61 90.4 61.14 90.64 61.42C90.92 61.66 91.06 61.98 91.06 62.38V66.58C93.62 66.9 95.8 67.62 97.6 68.74C99.44 69.86 100.82 71.18 101.74 72.7C102.7 74.22 103.22 75.74 103.3 77.26C103.3 77.58 103.18 77.86 102.94 78.1C102.74 78.34 102.44 78.46 102.04 78.46H98.86C98.02 78.46 97.5 78.08 97.3 77.32C97.06 75.64 96.12 74.26 94.48 73.18C92.84 72.06 90.78 71.5 88.3 71.5C85.58 71.5 83.44 72.02 81.88 73.06C80.32 74.1 79.54 75.64 79.54 77.68C79.54 79.04 79.9 80.16 80.62 81.04C81.38 81.92 82.52 82.7 84.04 83.38C85.56 84.02 87.78 84.76 90.7 85.6C94.1 86.52 96.78 87.48 98.74 88.48C100.7 89.44 102.16 90.66 103.12 92.14C104.08 93.58 104.56 95.42 104.56 97.66C104.56 101.06 103.36 103.8 100.96 105.88C98.56 107.92 95.26 109.12 91.06 109.48V113.62C91.06 114.02 90.92 114.34 90.64 114.58C90.4 114.86 90.08 115 89.68 115H87.4ZM131.15 109C130.75 109 130.41 108.88 130.13 108.64C129.89 108.36 129.77 108.02 129.77 107.62V98.98H110.33C109.93 98.98 109.59 98.86 109.31 98.62C109.07 98.34 108.95 98 108.95 97.6V95.2C108.95 94.6 109.17 94 109.61 93.4L127.61 68.02C127.81 67.7 128.11 67.46 128.51 67.3C128.91 67.1 129.35 67 129.83 67H134.15C134.55 67 134.87 67.14 135.11 67.42C135.39 67.66 135.53 67.98 135.53 68.38V93.76H140.93C141.33 93.76 141.67 93.9 141.95 94.18C142.23 94.42 142.37 94.74 142.37 95.14V97.6C142.37 98 142.23 98.34 141.95 98.62C141.71 98.86 141.39 98.98 140.99 98.98H135.53V107.62C135.53 108.02 135.39 108.36 135.11 108.64C134.87 108.88 134.55 109 134.15 109H131.15ZM129.83 93.88V73.3L115.37 93.88H129.83ZM163.375 109.6C158.215 109.6 154.435 108.1 152.035 105.1C149.635 102.1 148.355 98.16 148.195 93.28C148.155 92.2 148.135 90.46 148.135 88.06C148.135 85.58 148.155 83.78 148.195 82.66C148.315 77.86 149.595 73.96 152.035 70.96C154.475 67.92 158.255 66.4 163.375 66.4C168.535 66.4 172.335 67.92 174.775 70.96C177.215 73.96 178.495 77.86 178.615 82.66C178.695 84.9 178.735 86.7 178.735 88.06C178.735 89.38 178.695 91.12 178.615 93.28C178.455 98.16 177.175 102.1 174.775 105.1C172.375 108.1 168.575 109.6 163.375 109.6ZM163.375 104.44C166.375 104.44 168.635 103.44 170.155 101.44C171.715 99.44 172.535 96.62 172.615 92.98C172.695 90.66 172.735 88.98 172.735 87.94C172.735 86.82 172.695 85.18 172.615 83.02C172.535 79.42 171.735 76.6 170.215 74.56C168.695 72.52 166.415 71.5 163.375 71.5C160.375 71.5 158.095 72.52 156.535 74.56C155.015 76.6 154.215 79.42 154.135 83.02L154.075 87.94L154.135 92.98C154.215 96.62 155.015 99.44 156.535 101.44C158.095 103.44 160.375 104.44 163.375 104.44Z" fill="white"/>
<path d="M83.96 139.8C83.8267 139.8 83.7133 139.753 83.62 139.66C83.54 139.58 83.5 139.473 83.5 139.34V126.06C83.5 125.927 83.54 125.82 83.62 125.74C83.7133 125.647 83.8267 125.6 83.96 125.6H84.88C85.0133 125.6 85.12 125.647 85.2 125.74C85.2933 125.82 85.34 125.927 85.34 126.06V126.94C86.0867 125.913 87.18 125.4 88.62 125.4C90.02 125.4 91.0667 125.84 91.76 126.72C92.4667 127.6 92.8467 128.733 92.9 130.12C92.9133 130.267 92.92 130.493 92.92 130.8C92.92 131.107 92.9133 131.333 92.9 131.48C92.8467 132.853 92.4667 133.987 91.76 134.88C91.0533 135.76 90.0067 136.2 88.62 136.2C87.2333 136.2 86.1533 135.7 85.38 134.7V139.34C85.38 139.473 85.34 139.58 85.26 139.66C85.18 139.753 85.0733 139.8 84.94 139.8H83.96ZM88.2 134.58C89.1467 134.58 89.8333 134.287 90.26 133.7C90.7 133.113 90.94 132.34 90.98 131.38C90.9933 131.247 91 131.053 91 130.8C91 128.28 90.0667 127.02 88.2 127.02C87.28 127.02 86.5867 127.327 86.12 127.94C85.6667 128.54 85.42 129.26 85.38 130.1L85.36 130.86L85.38 131.64C85.4067 132.427 85.66 133.113 86.14 133.7C86.62 134.287 87.3067 134.58 88.2 134.58ZM99.5541 136.2C98.1807 136.2 97.0807 135.78 96.2541 134.94C95.4407 134.087 94.9941 132.927 94.9141 131.46L94.8941 130.78L94.9141 130.12C95.0074 128.68 95.4607 127.533 96.2741 126.68C97.1007 125.827 98.1874 125.4 99.5341 125.4C101.014 125.4 102.161 125.873 102.974 126.82C103.787 127.753 104.194 129.02 104.194 130.62V130.96C104.194 131.093 104.147 131.207 104.054 131.3C103.974 131.38 103.867 131.42 103.734 131.42H96.8141V131.6C96.8541 132.467 97.1141 133.207 97.5941 133.82C98.0874 134.42 98.7341 134.72 99.5341 134.72C100.147 134.72 100.647 134.6 101.034 134.36C101.434 134.107 101.727 133.847 101.914 133.58C102.034 133.42 102.121 133.327 102.174 133.3C102.241 133.26 102.354 133.24 102.514 133.24H103.494C103.614 133.24 103.714 133.273 103.794 133.34C103.874 133.407 103.914 133.5 103.914 133.62C103.914 133.913 103.727 134.267 103.354 134.68C102.994 135.093 102.481 135.453 101.814 135.76C101.161 136.053 100.407 136.2 99.5541 136.2ZM102.294 130.04V129.98C102.294 129.06 102.041 128.313 101.534 127.74C101.041 127.153 100.374 126.86 99.5341 126.86C98.6941 126.86 98.0274 127.153 97.5341 127.74C97.0541 128.313 96.8141 129.06 96.8141 129.98V130.04H102.294ZM107.045 136C106.912 136 106.799 135.96 106.705 135.88C106.625 135.787 106.585 135.673 106.585 135.54V126.08C106.585 125.947 106.625 125.833 106.705 125.74C106.799 125.647 106.912 125.6 107.045 125.6H107.965C108.099 125.6 108.212 125.647 108.305 125.74C108.399 125.833 108.445 125.947 108.445 126.08V126.96C108.992 126.053 109.925 125.6 111.245 125.6H112.025C112.159 125.6 112.265 125.647 112.345 125.74C112.439 125.82 112.485 125.927 112.485 126.06V126.88C112.485 127.013 112.439 127.12 112.345 127.2C112.265 127.28 112.159 127.32 112.025 127.32H110.825C110.105 127.32 109.539 127.533 109.125 127.96C108.712 128.373 108.505 128.94 108.505 129.66V135.54C108.505 135.673 108.459 135.787 108.365 135.88C108.272 135.96 108.159 136 108.025 136H107.045ZM122.217 136.2C121.283 136.2 120.497 136.053 119.857 135.76C119.23 135.453 118.757 135.107 118.437 134.72C118.13 134.333 117.977 134.013 117.977 133.76C117.977 133.627 118.023 133.527 118.117 133.46C118.223 133.38 118.33 133.34 118.437 133.34H119.337C119.47 133.34 119.59 133.407 119.697 133.54C120.017 133.913 120.363 134.207 120.737 134.42C121.11 134.633 121.61 134.74 122.237 134.74C122.93 134.74 123.49 134.607 123.917 134.34C124.357 134.06 124.577 133.68 124.577 133.2C124.577 132.88 124.483 132.62 124.297 132.42C124.123 132.207 123.817 132.027 123.377 131.88C122.95 131.72 122.31 131.547 121.457 131.36C120.297 131.107 119.47 130.74 118.977 130.26C118.497 129.78 118.257 129.16 118.257 128.4C118.257 127.893 118.403 127.413 118.697 126.96C119.003 126.493 119.443 126.12 120.017 125.84C120.603 125.547 121.303 125.4 122.117 125.4C122.97 125.4 123.697 125.54 124.297 125.82C124.897 126.1 125.343 126.433 125.637 126.82C125.943 127.193 126.097 127.507 126.097 127.76C126.097 127.88 126.05 127.98 125.957 128.06C125.877 128.14 125.777 128.18 125.657 128.18H124.817C124.657 128.18 124.523 128.113 124.417 127.98C124.203 127.727 124.017 127.533 123.857 127.4C123.71 127.253 123.49 127.127 123.197 127.02C122.917 126.913 122.557 126.86 122.117 126.86C121.477 126.86 120.983 127 120.637 127.28C120.29 127.547 120.117 127.9 120.117 128.34C120.117 128.62 120.19 128.86 120.337 129.06C120.483 129.247 120.763 129.42 121.177 129.58C121.603 129.74 122.217 129.907 123.017 130.08C124.283 130.347 125.177 130.733 125.697 131.24C126.23 131.733 126.497 132.367 126.497 133.14C126.497 133.713 126.33 134.233 125.997 134.7C125.663 135.167 125.17 135.533 124.517 135.8C123.877 136.067 123.11 136.2 122.217 136.2ZM132.972 136.2C131.599 136.2 130.499 135.78 129.672 134.94C128.859 134.087 128.412 132.927 128.332 131.46L128.312 130.78L128.332 130.12C128.425 128.68 128.879 127.533 129.692 126.68C130.519 125.827 131.605 125.4 132.952 125.4C134.432 125.4 135.579 125.873 136.392 126.82C137.205 127.753 137.612 129.02 137.612 130.62V130.96C137.612 131.093 137.565 131.207 137.472 131.3C137.392 131.38 137.285 131.42 137.152 131.42H130.232V131.6C130.272 132.467 130.532 133.207 131.012 133.82C131.505 134.42 132.152 134.72 132.952 134.72C133.565 134.72 134.065 134.6 134.452 134.36C134.852 134.107 135.145 133.847 135.332 133.58C135.452 133.42 135.539 133.327 135.592 133.3C135.659 133.26 135.772 133.24 135.932 133.24H136.912C137.032 133.24 137.132 133.273 137.212 133.34C137.292 133.407 137.332 133.5 137.332 133.62C137.332 133.913 137.145 134.267 136.772 134.68C136.412 135.093 135.899 135.453 135.232 135.76C134.579 136.053 133.825 136.2 132.972 136.2ZM135.712 130.04V129.98C135.712 129.06 135.459 128.313 134.952 127.74C134.459 127.153 133.792 126.86 132.952 126.86C132.112 126.86 131.445 127.153 130.952 127.74C130.472 128.313 130.232 129.06 130.232 129.98V130.04H135.712ZM143.603 136.2C142.67 136.2 141.883 136.053 141.243 135.76C140.617 135.453 140.143 135.107 139.823 134.72C139.517 134.333 139.363 134.013 139.363 133.76C139.363 133.627 139.41 133.527 139.503 133.46C139.61 133.38 139.717 133.34 139.823 133.34H140.723C140.857 133.34 140.977 133.407 141.083 133.54C141.403 133.913 141.75 134.207 142.123 134.42C142.497 134.633 142.997 134.74 143.623 134.74C144.317 134.74 144.877 134.607 145.303 134.34C145.743 134.06 145.963 133.68 145.963 133.2C145.963 132.88 145.87 132.62 145.683 132.42C145.51 132.207 145.203 132.027 144.763 131.88C144.337 131.72 143.697 131.547 142.843 131.36C141.683 131.107 140.857 130.74 140.363 130.26C139.883 129.78 139.643 129.16 139.643 128.4C139.643 127.893 139.79 127.413 140.083 126.96C140.39 126.493 140.83 126.12 141.403 125.84C141.99 125.547 142.69 125.4 143.503 125.4C144.357 125.4 145.083 125.54 145.683 125.82C146.283 126.1 146.73 126.433 147.023 126.82C147.33 127.193 147.483 127.507 147.483 127.76C147.483 127.88 147.437 127.98 147.343 128.06C147.263 128.14 147.163 128.18 147.043 128.18H146.203C146.043 128.18 145.91 128.113 145.803 127.98C145.59 127.727 145.403 127.533 145.243 127.4C145.097 127.253 144.877 127.127 144.583 127.02C144.303 126.913 143.943 126.86 143.503 126.86C142.863 126.86 142.37 127 142.023 127.28C141.677 127.547 141.503 127.9 141.503 128.34C141.503 128.62 141.577 128.86 141.723 129.06C141.87 129.247 142.15 129.42 142.563 129.58C142.99 129.74 143.603 129.907 144.403 130.08C145.67 130.347 146.563 130.733 147.083 131.24C147.617 131.733 147.883 132.367 147.883 133.14C147.883 133.713 147.717 134.233 147.383 134.7C147.05 135.167 146.557 135.533 145.903 135.8C145.263 136.067 144.497 136.2 143.603 136.2ZM153.799 136.2C152.865 136.2 152.079 136.053 151.439 135.76C150.812 135.453 150.339 135.107 150.019 134.72C149.712 134.333 149.559 134.013 149.559 133.76C149.559 133.627 149.605 133.527 149.699 133.46C149.805 133.38 149.912 133.34 150.019 133.34H150.919C151.052 133.34 151.172 133.407 151.279 133.54C151.599 133.913 151.945 134.207 152.319 134.42C152.692 134.633 153.192 134.74 153.819 134.74C154.512 134.74 155.072 134.607 155.499 134.34C155.939 134.06 156.159 133.68 156.159 133.2C156.159 132.88 156.065 132.62 155.879 132.42C155.705 132.207 155.399 132.027 154.959 131.88C154.532 131.72 153.892 131.547 153.039 131.36C151.879 131.107 151.052 130.74 150.559 130.26C150.079 129.78 149.839 129.16 149.839 128.4C149.839 127.893 149.985 127.413 150.279 126.96C150.585 126.493 151.025 126.12 151.599 125.84C152.185 125.547 152.885 125.4 153.699 125.4C154.552 125.4 155.279 125.54 155.879 125.82C156.479 126.1 156.925 126.433 157.219 126.82C157.525 127.193 157.679 127.507 157.679 127.76C157.679 127.88 157.632 127.98 157.539 128.06C157.459 128.14 157.359 128.18 157.239 128.18H156.399C156.239 128.18 156.105 128.113 155.999 127.98C155.785 127.727 155.599 127.533 155.439 127.4C155.292 127.253 155.072 127.127 154.779 127.02C154.499 126.913 154.139 126.86 153.699 126.86C153.059 126.86 152.565 127 152.219 127.28C151.872 127.547 151.699 127.9 151.699 128.34C151.699 128.62 151.772 128.86 151.919 129.06C152.065 129.247 152.345 129.42 152.759 129.58C153.185 129.74 153.799 129.907 154.599 130.08C155.865 130.347 156.759 130.733 157.279 131.24C157.812 131.733 158.079 132.367 158.079 133.14C158.079 133.713 157.912 134.233 157.579 134.7C157.245 135.167 156.752 135.533 156.099 135.8C155.459 136.067 154.692 136.2 153.799 136.2ZM160.694 123.66C160.561 123.66 160.447 123.62 160.354 123.54C160.274 123.447 160.234 123.333 160.234 123.2V122.12C160.234 121.987 160.274 121.873 160.354 121.78C160.447 121.687 160.561 121.64 160.694 121.64H161.954C162.087 121.64 162.201 121.687 162.294 121.78C162.387 121.873 162.434 121.987 162.434 122.12V123.2C162.434 123.333 162.387 123.447 162.294 123.54C162.201 123.62 162.087 123.66 161.954 123.66H160.694ZM160.854 136C160.721 136 160.607 135.96 160.514 135.88C160.434 135.787 160.394 135.673 160.394 135.54V126.06C160.394 125.927 160.434 125.82 160.514 125.74C160.607 125.647 160.721 125.6 160.854 125.6H161.814C161.947 125.6 162.054 125.647 162.134 125.74C162.227 125.82 162.274 125.927 162.274 126.06V135.54C162.274 135.673 162.227 135.787 162.134 135.88C162.054 135.96 161.947 136 161.814 136H160.854ZM169.498 136.2C168.031 136.2 166.891 135.787 166.078 134.96C165.278 134.133 164.851 133.033 164.798 131.66L164.778 130.8L164.798 129.94C164.851 128.58 165.284 127.487 166.098 126.66C166.911 125.82 168.044 125.4 169.498 125.4C170.951 125.4 172.084 125.82 172.898 126.66C173.711 127.487 174.144 128.58 174.198 129.94C174.211 130.087 174.218 130.373 174.218 130.8C174.218 131.227 174.211 131.513 174.198 131.66C174.144 133.033 173.711 134.133 172.898 134.96C172.098 135.787 170.964 136.2 169.498 136.2ZM169.498 134.66C170.338 134.66 170.998 134.393 171.478 133.86C171.971 133.327 172.238 132.56 172.278 131.56C172.291 131.427 172.298 131.173 172.298 130.8C172.298 130.427 172.291 130.173 172.278 130.04C172.238 129.04 171.971 128.273 171.478 127.74C170.998 127.207 170.338 126.94 169.498 126.94C168.658 126.94 167.991 127.207 167.498 127.74C167.004 128.273 166.744 129.04 166.718 130.04L166.698 130.8L166.718 131.56C166.744 132.56 167.004 133.327 167.498 133.86C167.991 134.393 168.658 134.66 169.498 134.66ZM177.182 136C177.049 136 176.936 135.96 176.842 135.88C176.762 135.787 176.722 135.673 176.722 135.54V126.06C176.722 125.927 176.762 125.82 176.842 125.74C176.936 125.647 177.049 125.6 177.182 125.6H178.122C178.256 125.6 178.362 125.647 178.442 125.74C178.536 125.82 178.582 125.927 178.582 126.06V126.94C178.969 126.447 179.422 126.067 179.942 125.8C180.476 125.533 181.136 125.4 181.922 125.4C183.202 125.4 184.196 125.813 184.902 126.64C185.622 127.453 185.982 128.54 185.982 129.9V135.54C185.982 135.673 185.936 135.787 185.842 135.88C185.762 135.96 185.656 136 185.522 136H184.522C184.389 136 184.276 135.96 184.182 135.88C184.102 135.787 184.062 135.673 184.062 135.54V130C184.062 129.053 183.829 128.32 183.362 127.8C182.909 127.28 182.249 127.02 181.382 127.02C180.542 127.02 179.876 127.287 179.382 127.82C178.889 128.34 178.642 129.067 178.642 130V135.54C178.642 135.673 178.596 135.787 178.502 135.88C178.422 135.96 178.316 136 178.182 136H177.182Z" fill="white"/>
<path d="M188.085 105.15C186.745 105.15 185.725 104.79 185.025 104.07C184.335 103.35 183.965 102.355 183.915 101.085C183.905 100.815 183.9 100.375 183.9 99.765C183.9 99.145 183.905 98.695 183.915 98.415C183.965 97.155 184.34 96.165 185.04 95.445C185.74 94.715 186.755 94.35 188.085 94.35C188.975 94.35 189.73 94.51 190.35 94.83C190.97 95.14 191.44 95.55 191.76 96.06C192.08 96.57 192.255 97.115 192.285 97.695V97.725C192.285 97.805 192.25 97.875 192.18 97.935C192.12 97.985 192.05 98.01 191.97 98.01H191.145C190.945 98.01 190.82 97.895 190.77 97.665C190.6 96.915 190.295 96.39 189.855 96.09C189.415 95.78 188.825 95.625 188.085 95.625C186.365 95.625 185.475 96.58 185.415 98.49C185.405 98.76 185.4 99.175 185.4 99.735C185.4 100.295 185.405 100.72 185.415 101.01C185.475 102.92 186.365 103.875 188.085 103.875C188.825 103.875 189.415 103.725 189.855 103.425C190.305 103.115 190.61 102.585 190.77 101.835C190.8 101.705 190.845 101.615 190.905 101.565C190.965 101.515 191.045 101.49 191.145 101.49H191.97C192.06 101.49 192.135 101.52 192.195 101.58C192.265 101.63 192.295 101.7 192.285 101.79C192.255 102.38 192.08 102.93 191.76 103.44C191.44 103.95 190.97 104.365 190.35 104.685C189.73 104.995 188.975 105.15 188.085 105.15ZM193.488 105C193.408 105 193.338 104.97 193.278 104.91C193.218 104.85 193.188 104.78 193.188 104.7C193.188 104.62 193.193 104.565 193.203 104.535L196.923 94.83C197.003 94.61 197.163 94.5 197.403 94.5H198.423C198.663 94.5 198.823 94.61 198.903 94.83L202.608 104.535L202.638 104.7C202.638 104.78 202.608 104.85 202.548 104.91C202.488 104.97 202.418 105 202.338 105H201.573C201.463 105 201.378 104.975 201.318 104.925C201.258 104.865 201.218 104.805 201.198 104.745L200.373 102.615H195.453L194.628 104.745C194.608 104.805 194.563 104.865 194.493 104.925C194.433 104.975 194.353 105 194.253 105H193.488ZM199.938 101.325L197.913 96L195.888 101.325H199.938ZM204.587 105C204.487 105 204.402 104.97 204.332 104.91C204.272 104.84 204.242 104.755 204.242 104.655V94.86C204.242 94.75 204.272 94.665 204.332 94.605C204.402 94.535 204.487 94.5 204.587 94.5H207.992C209.502 94.5 210.592 94.84 211.262 95.52C211.932 96.19 212.282 97.205 212.312 98.565C212.322 98.855 212.327 99.245 212.327 99.735C212.327 100.225 212.322 100.62 212.312 100.92C212.282 101.87 212.122 102.645 211.832 103.245C211.552 103.835 211.107 104.275 210.497 104.565C209.887 104.855 209.077 105 208.067 105H204.587ZM207.992 103.725C208.682 103.725 209.227 103.63 209.627 103.44C210.037 103.25 210.332 102.95 210.512 102.54C210.702 102.12 210.807 101.56 210.827 100.86C210.847 100.26 210.857 99.885 210.857 99.735C210.857 99.575 210.847 99.205 210.827 98.625C210.807 97.635 210.572 96.915 210.122 96.465C209.672 96.005 208.937 95.775 207.917 95.775H205.712V103.725H207.992Z" fill="white"/>
</g>
<defs>
<filter id="filter0_f" x="-25.0001" y="-431" width="700.998" height="729.895" filterUnits="userSpaceOnUse" color-interpolation-filters="sRGB">
<feFlood flood-opacity="0" result="BackgroundImageFix"/>
<feBlend mode="normal" in="SourceGraphic" in2="BackgroundImageFix" result="shape"/>
<feGaussianBlur stdDeviation="2" result="effect1_foregroundBlur"/>
</filter>
<filter id="filter1_f" x="-256" y="409" width="565.194" height="606.061" filterUnits="userSpaceOnUse" color-interpolation-filters="sRGB">
<feFlood flood-opacity="0" result="BackgroundImageFix"/>
<feBlend mode="normal" in="SourceGraphic" in2="BackgroundImageFix" result="shape"/>
<feGaussianBlur stdDeviation="2" result="effect1_foregroundBlur"/>
</filter>
<radialGradient id="paint0_radial" cx="0" cy="0" r="1" gradientUnits="userSpaceOnUse" gradientTransform="translate(349.5 35.5) rotate(148.003) scale(366.123 341.105)">
<stop stop-color="#86C0EB"/>
<stop offset="1" stop-color="#86C0EB" stop-opacity="0"/>
</radialGradient>
<radialGradient id="paint1_radial" cx="0" cy="0" r="1" gradientUnits="userSpaceOnUse" gradientTransform="translate(-22.8699 620.151) rotate(-44.165) scale(326.025 303.747)">
<stop stop-color="#86C0EB"/>
<stop offset="1" stop-color="#86C0EB" stop-opacity="0"/>
</radialGradient>
</defs>
</svg>
