<svg width="270" height="592" viewBox="0 0 270 592" fill="none" xmlns="http://www.w3.org/2000/svg">
<mask id="mask0" mask-type="alpha" maskUnits="userSpaceOnUse" x="0" y="0" width="270" height="591">
<rect width="270" height="591" rx="8" fill="#FD8AA1"/>
</mask>
<g mask="url(#mask0)">
<g filter="url(#filter0_f)">
<path fill-rule="evenodd" clip-rule="evenodd" d="M86.8212 -230.095C119.742 -195.639 167.955 -177.899 191.741 -136.605C218.869 -89.5074 263.89 -23.7469 230.282 18.9687C189.731 70.5095 81.5984 4.68972 40.4182 55.729C-8.99171 116.968 71.5343 232.038 14.5715 286.323C-30.0246 328.823 -106.528 273.614 -163.419 249.983C-215.15 228.494 -263.858 199.394 -299.242 155.968C-332.817 114.761 -361.795 63.8219 -358.316 10.7825C-354.982 -40.0288 -286.731 -67.4731 -281.262 -118.099C-274.156 -183.882 -357.239 -251.406 -323.825 -308.514C-294.087 -359.338 -211.237 -331.673 -152.678 -337.861C-102.765 -343.137 -50.5051 -362.833 -4.73376 -342.238C40.0358 -322.093 52.9067 -265.591 86.8212 -230.095Z" fill="url(#paint0_radial)"/>
</g>
<g filter="url(#filter1_f)">
<path fill-rule="evenodd" clip-rule="evenodd" d="M618.821 416.905C651.742 451.361 699.955 469.101 723.741 510.395C750.869 557.493 795.89 623.253 762.282 665.969C721.731 717.509 613.598 651.69 572.418 702.729C523.008 763.968 603.534 879.038 546.572 933.323C501.975 975.823 425.472 920.614 368.581 896.983C316.85 875.494 268.142 846.394 232.758 802.968C199.183 761.761 170.205 710.822 173.684 657.783C177.018 606.971 245.269 579.527 250.738 528.901C257.844 463.118 174.761 395.594 208.175 338.486C237.913 287.662 320.763 315.327 379.322 309.139C429.235 303.863 481.495 284.167 527.266 304.762C572.036 324.907 584.907 381.409 618.821 416.905Z" fill="url(#paint1_radial)"/>
</g>
<path d="M90.4 115C90 115 89.66 114.86 89.38 114.58C89.14 114.34 89.02 114.02 89.02 113.62V109.42C86.22 109.18 83.8 108.54 81.76 107.5C79.72 106.42 78.16 105.1 77.08 103.54C76.04 101.94 75.48 100.24 75.4 98.44C75.4 98.12 75.52 97.84 75.76 97.6C76.04 97.32 76.36 97.18 76.72 97.18H79.84C80.56 97.18 81.06 97.58 81.34 98.38C81.74 100.06 82.78 101.5 84.46 102.7C86.14 103.9 88.52 104.5 91.6 104.5C94.92 104.5 97.42 103.92 99.1 102.76C100.78 101.56 101.62 99.9 101.62 97.78C101.62 96.42 101.2 95.32 100.36 94.48C99.56 93.64 98.36 92.9 96.76 92.26C95.16 91.62 92.76 90.82 89.56 89.86C86.44 88.98 83.96 88.04 82.12 87.04C80.28 86.04 78.9 84.8 77.98 83.32C77.06 81.84 76.6 79.98 76.6 77.74C76.6 74.78 77.7 72.28 79.9 70.24C82.1 68.16 85.14 66.92 89.02 66.52V62.38C89.02 61.98 89.14 61.66 89.38 61.42C89.66 61.14 90 61 90.4 61H92.68C93.08 61 93.4 61.14 93.64 61.42C93.92 61.66 94.06 61.98 94.06 62.38V66.58C96.62 66.9 98.8 67.62 100.6 68.74C102.44 69.86 103.82 71.18 104.74 72.7C105.7 74.22 106.22 75.74 106.3 77.26C106.3 77.58 106.18 77.86 105.94 78.1C105.74 78.34 105.44 78.46 105.04 78.46H101.86C101.02 78.46 100.5 78.08 100.3 77.32C100.06 75.64 99.12 74.26 97.48 73.18C95.84 72.06 93.78 71.5 91.3 71.5C88.58 71.5 86.44 72.02 84.88 73.06C83.32 74.1 82.54 75.64 82.54 77.68C82.54 79.04 82.9 80.16 83.62 81.04C84.38 81.92 85.52 82.7 87.04 83.38C88.56 84.02 90.78 84.76 93.7 85.6C97.1 86.52 99.78 87.48 101.74 88.48C103.7 89.44 105.16 90.66 106.12 92.14C107.08 93.58 107.56 95.42 107.56 97.66C107.56 101.06 106.36 103.8 103.96 105.88C101.56 107.92 98.26 109.12 94.06 109.48V113.62C94.06 114.02 93.92 114.34 93.64 114.58C93.4 114.86 93.08 115 92.68 115H90.4ZM134.15 109C133.75 109 133.41 108.88 133.13 108.64C132.89 108.36 132.77 108.02 132.77 107.62V98.98H113.33C112.93 98.98 112.59 98.86 112.31 98.62C112.07 98.34 111.95 98 111.95 97.6V95.2C111.95 94.6 112.17 94 112.61 93.4L130.61 68.02C130.81 67.7 131.11 67.46 131.51 67.3C131.91 67.1 132.35 67 132.83 67H137.15C137.55 67 137.87 67.14 138.11 67.42C138.39 67.66 138.53 67.98 138.53 68.38V93.76H143.93C144.33 93.76 144.67 93.9 144.95 94.18C145.23 94.42 145.37 94.74 145.37 95.14V97.6C145.37 98 145.23 98.34 144.95 98.62C144.71 98.86 144.39 98.98 143.99 98.98H138.53V107.62C138.53 108.02 138.39 108.36 138.11 108.64C137.87 108.88 137.55 109 137.15 109H134.15ZM132.83 93.88V73.3L118.37 93.88H132.83ZM164.875 109.6C161.835 109.6 159.215 109.06 157.015 107.98C154.815 106.9 153.115 105.48 151.915 103.72C150.755 101.96 150.135 100.08 150.055 98.08V97.96C150.055 97.64 150.175 97.38 150.415 97.18C150.655 96.98 150.935 96.88 151.255 96.88H154.495C155.335 96.88 155.875 97.32 156.115 98.2C156.675 100.32 157.755 101.9 159.355 102.94C160.955 103.98 162.795 104.5 164.875 104.5C167.555 104.5 169.775 103.7 171.535 102.1C173.335 100.46 174.235 98.2 174.235 95.32C174.235 92.72 173.335 90.62 171.535 89.02C169.775 87.42 167.555 86.62 164.875 86.62C163.435 86.62 162.275 86.82 161.395 87.22C160.515 87.58 159.635 88.1 158.755 88.78C158.275 89.14 157.855 89.42 157.495 89.62C157.175 89.78 156.815 89.86 156.415 89.86H153.295C152.935 89.86 152.615 89.74 152.335 89.5C152.055 89.22 151.935 88.9 151.975 88.54L153.895 68.5C153.935 68.02 154.075 67.66 154.315 67.42C154.595 67.14 154.955 67 155.395 67H176.335C176.735 67 177.055 67.14 177.295 67.42C177.575 67.66 177.715 67.98 177.715 68.38V70.72C177.715 71.12 177.575 71.46 177.295 71.74C177.055 71.98 176.735 72.1 176.335 72.1H159.055L157.915 83.92C160.075 82.56 162.675 81.88 165.715 81.88C168.355 81.88 170.775 82.42 172.975 83.5C175.215 84.58 176.975 86.14 178.255 88.18C179.575 90.22 180.235 92.62 180.235 95.38C180.235 98.34 179.575 100.9 178.255 103.06C176.975 105.18 175.175 106.8 172.855 107.92C170.535 109.04 167.875 109.6 164.875 109.6Z" fill="black"/>
<path d="M91.96 139.8C91.8267 139.8 91.7133 139.753 91.62 139.66C91.54 139.58 91.5 139.473 91.5 139.34V126.06C91.5 125.927 91.54 125.82 91.62 125.74C91.7133 125.647 91.8267 125.6 91.96 125.6H92.88C93.0133 125.6 93.12 125.647 93.2 125.74C93.2933 125.82 93.34 125.927 93.34 126.06V126.94C94.0867 125.913 95.18 125.4 96.62 125.4C98.02 125.4 99.0667 125.84 99.76 126.72C100.467 127.6 100.847 128.733 100.9 130.12C100.913 130.267 100.92 130.493 100.92 130.8C100.92 131.107 100.913 131.333 100.9 131.48C100.847 132.853 100.467 133.987 99.76 134.88C99.0533 135.76 98.0067 136.2 96.62 136.2C95.2333 136.2 94.1533 135.7 93.38 134.7V139.34C93.38 139.473 93.34 139.58 93.26 139.66C93.18 139.753 93.0733 139.8 92.94 139.8H91.96ZM96.2 134.58C97.1467 134.58 97.8333 134.287 98.26 133.7C98.7 133.113 98.94 132.34 98.98 131.38C98.9933 131.247 99 131.053 99 130.8C99 128.28 98.0667 127.02 96.2 127.02C95.28 127.02 94.5867 127.327 94.12 127.94C93.6667 128.54 93.42 129.26 93.38 130.1L93.36 130.86L93.38 131.64C93.4067 132.427 93.66 133.113 94.14 133.7C94.62 134.287 95.3067 134.58 96.2 134.58ZM107.554 136.2C106.181 136.2 105.081 135.78 104.254 134.94C103.441 134.087 102.994 132.927 102.914 131.46L102.894 130.78L102.914 130.12C103.007 128.68 103.461 127.533 104.274 126.68C105.101 125.827 106.187 125.4 107.534 125.4C109.014 125.4 110.161 125.873 110.974 126.82C111.787 127.753 112.194 129.02 112.194 130.62V130.96C112.194 131.093 112.147 131.207 112.054 131.3C111.974 131.38 111.867 131.42 111.734 131.42H104.814V131.6C104.854 132.467 105.114 133.207 105.594 133.82C106.087 134.42 106.734 134.72 107.534 134.72C108.147 134.72 108.647 134.6 109.034 134.36C109.434 134.107 109.727 133.847 109.914 133.58C110.034 133.42 110.121 133.327 110.174 133.3C110.241 133.26 110.354 133.24 110.514 133.24H111.494C111.614 133.24 111.714 133.273 111.794 133.34C111.874 133.407 111.914 133.5 111.914 133.62C111.914 133.913 111.727 134.267 111.354 134.68C110.994 135.093 110.481 135.453 109.814 135.76C109.161 136.053 108.407 136.2 107.554 136.2ZM110.294 130.04V129.98C110.294 129.06 110.041 128.313 109.534 127.74C109.041 127.153 108.374 126.86 107.534 126.86C106.694 126.86 106.027 127.153 105.534 127.74C105.054 128.313 104.814 129.06 104.814 129.98V130.04H110.294ZM115.045 136C114.912 136 114.799 135.96 114.705 135.88C114.625 135.787 114.585 135.673 114.585 135.54V126.08C114.585 125.947 114.625 125.833 114.705 125.74C114.799 125.647 114.912 125.6 115.045 125.6H115.965C116.099 125.6 116.212 125.647 116.305 125.74C116.399 125.833 116.445 125.947 116.445 126.08V126.96C116.992 126.053 117.925 125.6 119.245 125.6H120.025C120.159 125.6 120.265 125.647 120.345 125.74C120.439 125.82 120.485 125.927 120.485 126.06V126.88C120.485 127.013 120.439 127.12 120.345 127.2C120.265 127.28 120.159 127.32 120.025 127.32H118.825C118.105 127.32 117.539 127.533 117.125 127.96C116.712 128.373 116.505 128.94 116.505 129.66V135.54C116.505 135.673 116.459 135.787 116.365 135.88C116.272 135.96 116.159 136 116.025 136H115.045ZM127.097 136C126.963 136 126.85 135.96 126.757 135.88C126.677 135.787 126.637 135.673 126.637 135.54V122.26C126.637 122.127 126.677 122.02 126.757 121.94C126.85 121.847 126.963 121.8 127.097 121.8H128.097C128.23 121.8 128.337 121.847 128.417 121.94C128.51 122.02 128.557 122.127 128.557 122.26V126.92C128.943 126.427 129.397 126.053 129.917 125.8C130.437 125.533 131.083 125.4 131.857 125.4C133.137 125.4 134.13 125.813 134.837 126.64C135.557 127.453 135.917 128.54 135.917 129.9V135.54C135.917 135.673 135.87 135.787 135.777 135.88C135.697 135.96 135.59 136 135.457 136H134.457C134.323 136 134.21 135.96 134.117 135.88C134.037 135.787 133.997 135.673 133.997 135.54V130C133.997 129.053 133.763 128.32 133.297 127.8C132.843 127.28 132.183 127.02 131.317 127.02C130.477 127.02 129.803 127.287 129.297 127.82C128.803 128.34 128.557 129.067 128.557 130V135.54C128.557 135.673 128.51 135.787 128.417 135.88C128.337 135.96 128.23 136 128.097 136H127.097ZM143.064 136.2C141.598 136.2 140.458 135.787 139.644 134.96C138.844 134.133 138.418 133.033 138.364 131.66L138.344 130.8L138.364 129.94C138.418 128.58 138.851 127.487 139.664 126.66C140.478 125.82 141.611 125.4 143.064 125.4C144.518 125.4 145.651 125.82 146.464 126.66C147.278 127.487 147.711 128.58 147.764 129.94C147.778 130.087 147.784 130.373 147.784 130.8C147.784 131.227 147.778 131.513 147.764 131.66C147.711 133.033 147.278 134.133 146.464 134.96C145.664 135.787 144.531 136.2 143.064 136.2ZM143.064 134.66C143.904 134.66 144.564 134.393 145.044 133.86C145.538 133.327 145.804 132.56 145.844 131.56C145.858 131.427 145.864 131.173 145.864 130.8C145.864 130.427 145.858 130.173 145.844 130.04C145.804 129.04 145.538 128.273 145.044 127.74C144.564 127.207 143.904 126.94 143.064 126.94C142.224 126.94 141.558 127.207 141.064 127.74C140.571 128.273 140.311 129.04 140.284 130.04L140.264 130.8L140.284 131.56C140.311 132.56 140.571 133.327 141.064 133.86C141.558 134.393 142.224 134.66 143.064 134.66ZM154.169 136.2C152.902 136.2 151.922 135.793 151.229 134.98C150.535 134.153 150.189 133.06 150.189 131.7V126.06C150.189 125.927 150.229 125.82 150.309 125.74C150.402 125.647 150.515 125.6 150.649 125.6H151.649C151.782 125.6 151.889 125.647 151.969 125.74C152.062 125.82 152.109 125.927 152.109 126.06V131.6C152.109 133.587 152.975 134.58 154.709 134.58C155.549 134.58 156.215 134.32 156.709 133.8C157.202 133.267 157.449 132.533 157.449 131.6V126.06C157.449 125.927 157.489 125.82 157.569 125.74C157.662 125.647 157.775 125.6 157.909 125.6H158.909C159.042 125.6 159.149 125.647 159.229 125.74C159.309 125.82 159.349 125.927 159.349 126.06V135.54C159.349 135.673 159.309 135.787 159.229 135.88C159.149 135.96 159.042 136 158.909 136H157.969C157.835 136 157.722 135.96 157.629 135.88C157.549 135.787 157.509 135.673 157.509 135.54V134.66C157.135 135.167 156.682 135.553 156.149 135.82C155.615 136.073 154.955 136.2 154.169 136.2ZM162.78 136C162.647 136 162.533 135.96 162.44 135.88C162.36 135.787 162.32 135.673 162.32 135.54V126.08C162.32 125.947 162.36 125.833 162.44 125.74C162.533 125.647 162.647 125.6 162.78 125.6H163.7C163.833 125.6 163.947 125.647 164.04 125.74C164.133 125.833 164.18 125.947 164.18 126.08V126.96C164.727 126.053 165.66 125.6 166.98 125.6H167.76C167.893 125.6 168 125.647 168.08 125.74C168.173 125.82 168.22 125.927 168.22 126.06V126.88C168.22 127.013 168.173 127.12 168.08 127.2C168 127.28 167.893 127.32 167.76 127.32H166.56C165.84 127.32 165.273 127.533 164.86 127.96C164.447 128.373 164.24 128.94 164.24 129.66V135.54C164.24 135.673 164.193 135.787 164.1 135.88C164.007 135.96 163.893 136 163.76 136H162.78Z" fill="black"/>
<path d="M187.085 105.15C185.745 105.15 184.725 104.79 184.025 104.07C183.335 103.35 182.965 102.355 182.915 101.085C182.905 100.815 182.9 100.375 182.9 99.765C182.9 99.145 182.905 98.695 182.915 98.415C182.965 97.155 183.34 96.165 184.04 95.445C184.74 94.715 185.755 94.35 187.085 94.35C187.975 94.35 188.73 94.51 189.35 94.83C189.97 95.14 190.44 95.55 190.76 96.06C191.08 96.57 191.255 97.115 191.285 97.695V97.725C191.285 97.805 191.25 97.875 191.18 97.935C191.12 97.985 191.05 98.01 190.97 98.01H190.145C189.945 98.01 189.82 97.895 189.77 97.665C189.6 96.915 189.295 96.39 188.855 96.09C188.415 95.78 187.825 95.625 187.085 95.625C185.365 95.625 184.475 96.58 184.415 98.49C184.405 98.76 184.4 99.175 184.4 99.735C184.4 100.295 184.405 100.72 184.415 101.01C184.475 102.92 185.365 103.875 187.085 103.875C187.825 103.875 188.415 103.725 188.855 103.425C189.305 103.115 189.61 102.585 189.77 101.835C189.8 101.705 189.845 101.615 189.905 101.565C189.965 101.515 190.045 101.49 190.145 101.49H190.97C191.06 101.49 191.135 101.52 191.195 101.58C191.265 101.63 191.295 101.7 191.285 101.79C191.255 102.38 191.08 102.93 190.76 103.44C190.44 103.95 189.97 104.365 189.35 104.685C188.73 104.995 187.975 105.15 187.085 105.15ZM192.488 105C192.408 105 192.338 104.97 192.278 104.91C192.218 104.85 192.188 104.78 192.188 104.7C192.188 104.62 192.193 104.565 192.203 104.535L195.923 94.83C196.003 94.61 196.163 94.5 196.403 94.5H197.423C197.663 94.5 197.823 94.61 197.903 94.83L201.608 104.535L201.638 104.7C201.638 104.78 201.608 104.85 201.548 104.91C201.488 104.97 201.418 105 201.338 105H200.573C200.463 105 200.378 104.975 200.318 104.925C200.258 104.865 200.218 104.805 200.198 104.745L199.373 102.615H194.453L193.628 104.745C193.608 104.805 193.563 104.865 193.493 104.925C193.433 104.975 193.353 105 193.253 105H192.488ZM198.938 101.325L196.913 96L194.888 101.325H198.938ZM203.587 105C203.487 105 203.402 104.97 203.332 104.91C203.272 104.84 203.242 104.755 203.242 104.655V94.86C203.242 94.75 203.272 94.665 203.332 94.605C203.402 94.535 203.487 94.5 203.587 94.5H206.992C208.502 94.5 209.592 94.84 210.262 95.52C210.932 96.19 211.282 97.205 211.312 98.565C211.322 98.855 211.327 99.245 211.327 99.735C211.327 100.225 211.322 100.62 211.312 100.92C211.282 101.87 211.122 102.645 210.832 103.245C210.552 103.835 210.107 104.275 209.497 104.565C208.887 104.855 208.077 105 207.067 105H203.587ZM206.992 103.725C207.682 103.725 208.227 103.63 208.627 103.44C209.037 103.25 209.332 102.95 209.512 102.54C209.702 102.12 209.807 101.56 209.827 100.86C209.847 100.26 209.857 99.885 209.857 99.735C209.857 99.575 209.847 99.205 209.827 98.625C209.807 97.635 209.572 96.915 209.122 96.465C208.672 96.005 207.937 95.775 206.917 95.775H204.712V103.725H206.992Z" fill="black"/>
</g>
<defs>
<filter id="filter0_f" x="-550" y="-494" width="876.971" height="876.971" filterUnits="userSpaceOnUse" color-interpolation-filters="sRGB">
<feFlood flood-opacity="0" result="BackgroundImageFix"/>
<feBlend mode="normal" in="SourceGraphic" in2="BackgroundImageFix" result="shape"/>
<feGaussianBlur stdDeviation="2" result="effect1_foregroundBlur"/>
</filter>
<filter id="filter1_f" x="-18" y="153" width="876.971" height="876.971" filterUnits="userSpaceOnUse" color-interpolation-filters="sRGB">
<feFlood flood-opacity="0" result="BackgroundImageFix"/>
<feBlend mode="normal" in="SourceGraphic" in2="BackgroundImageFix" result="shape"/>
<feGaussianBlur stdDeviation="2" result="effect1_foregroundBlur"/>
</filter>
<radialGradient id="paint0_radial" cx="0" cy="0" r="1" gradientUnits="userSpaceOnUse" gradientTransform="translate(-98.5 -94) rotate(34.573) scale(548.941 640.559)">
<stop stop-color="#86C0EB"/>
<stop offset="1" stop-color="#86C0EB" stop-opacity="0"/>
</radialGradient>
<radialGradient id="paint1_radial" cx="0" cy="0" r="1" gradientUnits="userSpaceOnUse" gradientTransform="translate(433.5 553) rotate(34.573) scale(548.941 640.559)">
<stop stop-color="#86C0EB"/>
<stop offset="1" stop-color="#86C0EB" stop-opacity="0"/>
</radialGradient>
</defs>
</svg>
